<svg width="20" height="20" viewBox="0 0 20 20" fill="none" xmlns="http://www.w3.org/2000/svg">
<path d="M3.30746 13.308L9.55746 7.05795C9.61551 6.99984 9.68444 6.95374 9.76031 6.92229C9.83619 6.89084 9.91752 6.87465 9.99965 6.87465C10.0818 6.87465 10.1631 6.89084 10.239 6.92229C10.3149 6.95374 10.3838 6.99984 10.4418 7.05795L16.6918 13.308C16.8091 13.4252 16.875 13.5843 16.875 13.7501C16.875 13.916 16.8091 14.0751 16.6918 14.1923C16.5746 14.3096 16.4155 14.3755 16.2497 14.3755C16.0838 14.3755 15.9247 14.3096 15.8075 14.1923L9.99965 8.38373L4.19184 14.1923C4.13377 14.2504 4.06483 14.2965 3.98896 14.3279C3.91309 14.3593 3.83177 14.3755 3.74965 14.3755C3.66753 14.3755 3.58621 14.3593 3.51034 14.3279C3.43447 14.2965 3.36553 14.2504 3.30746 14.1923C3.2494 14.1343 3.20333 14.0653 3.17191 13.9895C3.14048 13.9136 3.1243 13.8323 3.1243 13.7501C3.1243 13.668 3.14048 13.5867 3.17191 13.5108C3.20333 13.435 3.2494 13.366 3.30746 13.308Z" fill="white"/>
</svg>
