<svg width="20" height="20" viewBox="0 0 20 20" fill="none" xmlns="http://www.w3.org/2000/svg">
<path d="M17.5 11.25V16.25C17.5 16.4158 17.4342 16.5747 17.3169 16.6919C17.1997 16.8092 17.0408 16.875 16.875 16.875H3.125C2.95924 16.875 2.80027 16.8092 2.68306 16.6919C2.56585 16.5747 2.5 16.4158 2.5 16.25V11.25C2.5 11.0842 2.56585 10.9253 2.68306 10.8081C2.80027 10.6908 2.95924 10.625 3.125 10.625C3.29076 10.625 3.44973 10.6908 3.56694 10.8081C3.68415 10.9253 3.75 11.0842 3.75 11.25V15.625H16.25V11.25C16.25 11.0842 16.3158 10.9253 16.4331 10.8081C16.5503 10.6908 16.7092 10.625 16.875 10.625C17.0408 10.625 17.1997 10.6908 17.3169 10.8081C17.4342 10.9253 17.5 11.0842 17.5 11.25Z" fill="#1C3664"/>
<path d="M10.011 10.9529C9.93514 10.9214 9.86621 10.8753 9.80816 10.8172L6.68316 7.69219C6.56588 7.57491 6.5 7.41585 6.5 7.25C6.5 7.08415 6.56588 6.92509 6.68316 6.80781C6.80044 6.69054 6.9595 6.62465 7.12535 6.62465C7.2912 6.62465 7.45026 6.69054 7.56754 6.80781L9.62535 8.86641V1.625C9.62535 1.45924 9.6912 1.30027 9.80841 1.18306C9.92562 1.06585 10.0846 1 10.2503 1C10.4161 1 10.5751 1.06585 10.6923 1.18306C10.8095 1.30027 10.8753 1.45924 10.8753 1.625V8.86641L12.9332 6.80781C12.9912 6.74974 13.0602 6.70368 13.136 6.67225C13.2119 6.64083 13.2932 6.62465 13.3753 6.62465C13.4575 6.62465 13.5388 6.64083 13.6147 6.67225C13.6905 6.70368 13.7595 6.74974 13.8175 6.80781C13.8756 6.86588 13.9217 6.93482 13.9531 7.01069C13.9845 7.08656 14.0007 7.16788 14.0007 7.25C14.0007 7.33212 13.9845 7.41344 13.9531 7.48931C13.9217 7.56518 13.8756 7.63412 13.8175 7.69219L10.6925 10.8172C10.6345 10.8753 10.5656 10.9214 10.4897 10.9529C10.4138 10.9843 10.3325 11.0005 10.2503 11.0005C10.1682 11.0005 10.0869 10.9843 10.011 10.9529Z" fill="#1C3664"/>
</svg>
