<svg width="852" height="520" viewBox="0 0 852 520" fill="none" xmlns="http://www.w3.org/2000/svg">
<g clip-path="url(#clip0_1_11)">
<rect width="852" height="520" rx="16" fill="white"/>
<rect width="158" height="520" fill="#F7F7F7"/>
<path d="M51.1744 31.8199C50.7292 31.2431 50.2552 30.9899 49.1062 30.9899C47.9572 30.9899 47.4832 31.3697 47.4832 32.0871C47.4832 32.8045 48.3162 33.2968 49.4222 33.3812C50.9877 33.4938 52.424 33.9439 52.424 35.8147C52.424 37.6856 51.433 38.2201 49.2785 38.2201C47.1241 38.2201 46.6932 37.7137 46.0612 36.8557L47.0523 36.1664C47.4975 36.7572 48.1008 36.9963 49.3073 36.9963C50.5137 36.9963 51.0883 36.5743 51.0883 35.8288C51.0883 35.0833 50.5568 34.6332 48.9338 34.5206C47.5263 34.4222 46.1474 33.8736 46.1474 32.0871C46.1474 30.3007 47.1528 29.7661 49.1349 29.7661C51.117 29.7661 51.5191 30.1037 52.1798 31.1306L51.1744 31.8199Z" fill="#1C3664"/>
<path d="M54.0184 26.7981H55.5265V28.2751H54.0184V26.7981ZM54.0902 29.9068H55.426V38.0794H54.0902V29.9068Z" fill="#1C3664"/>
<path d="M57.4367 26.7981H58.7724V35.238C58.7724 36.1242 58.8155 36.8697 60.1943 36.8697V38.0794C58.083 38.0794 57.4367 37.2636 57.4367 35.5615V26.7981Z" fill="#1C3664"/>
<path d="M61.76 26.7981H63.2681V28.2751H61.76V26.7981ZM61.8461 29.9068H63.1819V38.0794H61.8461V29.9068Z" fill="#1C3664"/>
<path d="M71.2682 36.8416C70.7511 37.784 69.7313 38.2201 68.3812 38.2201C66.0975 38.2201 64.7761 36.7853 64.7761 34.5206V33.4375C64.7761 31.1165 66.1263 29.7661 68.3812 29.7661C70.6362 29.7661 70.6649 30.2022 71.2682 31.0462L70.2197 31.7636C69.8462 31.2431 69.1568 30.9477 68.3812 30.9477C66.9449 30.9477 66.1119 31.8902 66.1119 33.4375V34.5206C66.1119 35.9273 66.787 37.0385 68.3812 37.0385C69.9755 37.0385 69.8893 36.7713 70.234 36.1242L71.2682 36.8416Z" fill="#1C3664"/>
<path d="M78.7082 34.5206C78.7082 36.6447 77.6454 38.2201 75.2324 38.2201C72.8194 38.2201 71.7566 36.7853 71.7566 34.5206V33.4375C71.7566 31.1165 73.0493 29.7661 75.2324 29.7661C77.4156 29.7661 78.7082 31.0884 78.7082 33.4375V34.5206ZM77.3725 34.5206V33.4375C77.3725 31.8902 76.5969 30.9477 75.2324 30.9477C73.8679 30.9477 73.0923 31.8902 73.0923 33.4375V34.5206C73.0923 35.9273 73.6956 37.0385 75.2324 37.0385C76.7692 37.0385 77.3725 35.9132 77.3725 34.5206Z" fill="#1C3664"/>
<path d="M80.0438 29.9067H81.3796V30.7085C81.7961 30.0895 82.385 29.7801 83.6202 29.7801C85.4012 29.7801 86.6651 30.6944 86.6651 32.9872V38.0934H85.3294V33.0013C85.3294 31.3555 84.4102 30.9898 83.4191 30.9898C82.4281 30.9898 81.3796 31.8619 81.3796 32.9872V38.0934H80.0438V29.9207V29.9067Z" fill="#1C3664"/>
<path d="M94.6365 36.8416C94.0476 37.8403 93.0853 38.2342 91.5772 38.2342C89.0781 38.2342 87.8716 36.6447 87.8716 34.5347V33.4234C87.8716 30.9477 89.1355 29.7661 91.3187 29.7661C93.5019 29.7661 94.7658 31.1025 94.7658 33.5922V34.5206H90.0117C90.026 35.6459 90.3995 36.4618 91.5772 36.4618C92.755 36.4618 92.7406 36.1945 93.0566 35.7585L94.6365 36.8416ZM89.9973 33.0296H92.6257C92.5826 31.9605 92.1374 31.5245 91.3331 31.5245C90.5287 31.5245 90.0835 32.1012 89.9973 33.0296Z" fill="#1C3664"/>
<path d="M100.31 38.0794L98.687 35.5896L97.0639 38.0794H94.7084L97.4517 33.8876L94.9239 29.8927H97.2794L98.687 32.2277L100.095 29.8927H102.45L99.9222 33.8876L102.68 38.0794H100.31Z" fill="#1C3664"/>
<path d="M110.436 34.5347C110.436 36.6587 109.33 38.2341 107.175 38.2341C105.021 38.2341 105.725 38.0653 105.337 37.7559V41.1881H103.197V29.9068H105.337V30.4413C105.739 30.0052 106.342 29.752 107.19 29.752C109.129 29.752 110.436 31.0743 110.436 33.4093V34.5206V34.5347ZM108.31 34.4081V33.5641C108.31 32.2559 107.894 31.5385 106.845 31.5385C105.797 31.5385 105.366 32.1996 105.366 33.3812V34.4081C105.366 35.5896 105.653 36.4758 106.845 36.4758C108.037 36.4758 108.31 35.5896 108.31 34.4081Z" fill="#1C3664"/>
<path d="M117.89 36.8416C117.301 37.8403 116.339 38.2342 114.831 38.2342C112.332 38.2342 111.125 36.6447 111.125 34.5347V33.4234C111.125 30.9477 112.389 29.7661 114.572 29.7661C116.755 29.7661 118.019 31.1025 118.019 33.5922V34.5206H113.265C113.28 35.6459 113.653 36.4618 114.831 36.4618C116.009 36.4618 115.994 36.1945 116.31 35.7585L117.89 36.8416ZM113.251 33.0296H115.879C115.836 31.9605 115.391 31.5245 114.587 31.5245C113.782 31.5245 113.337 32.1012 113.251 33.0296Z" fill="#1C3664"/>
<path d="M123.65 32.1854C123.434 31.876 123.132 31.5665 122.601 31.5665C121.797 31.5665 121.265 32.1432 121.265 33.2826V38.0934H119.125V29.9207H121.208V30.61C121.495 30.2021 122.041 29.7801 123.032 29.7801C124.023 29.7801 124.784 30.2021 125.287 31.0601L123.65 32.1995V32.1854Z" fill="#1C3664"/>
<path d="M125.689 29.9067V27.3325H127.815V29.9067H129.854V31.6791H127.815V35.0972C127.815 35.9131 128.375 36.2648 129.165 36.2648H129.854V38.0934H128.95C126.924 38.0934 125.689 37.5307 125.689 35.4208V31.6791V29.9067Z" fill="#1C3664"/>
<path d="M34.729 28.6407C34.7003 29.2456 34.2263 29.977 33.6805 30.2584L28.1508 33.142C27.605 33.4233 27.1885 33.1701 27.2172 32.5653L27.3178 30.5678C27.3465 29.963 27.8205 29.2315 28.3663 28.9502L33.896 26.0666C34.4418 25.7852 34.8583 26.0384 34.8296 26.6433L34.729 28.6407Z" fill="#1C3664"/>
<path d="M41.7238 37.4322C41.695 38.0371 41.2211 38.7686 40.6753 39.0499L35.1456 41.9335C34.5998 42.2149 34.1832 41.9617 34.212 41.3568L34.3125 39.3594C34.3412 38.7545 34.8152 38.023 35.361 37.7417L40.8907 34.8581C41.4365 34.5768 41.853 34.8299 41.8243 35.4348L41.7238 37.4322Z" fill="#1C3664"/>
<path d="M41.6807 31.3556C41.652 31.9605 41.178 32.6779 40.6322 32.9592L28.2514 39.3313C27.7056 39.6126 27.2747 39.3454 27.3035 38.7405L27.404 36.7431C27.4327 36.1382 27.9067 35.4208 28.4525 35.1395L40.8333 28.7674C41.3791 28.486 41.81 28.7533 41.7813 29.3582L41.6807 31.3556Z" fill="#1C3664"/>
<rect x="24" y="205" width="81" height="8" fill="#F1F1F1"/>
<rect x="24" y="221" width="81" height="8" fill="#F1F1F1"/>
<rect x="24" y="237" width="81" height="8" fill="#F1F1F1"/>
<rect x="24" y="253" width="81" height="8" fill="#F1F1F1"/>
<path d="M203.758 150V141.624H205.102L206.686 144.588L207.502 146.136H207.562L208.39 144.588L209.974 141.624H211.27V150H210.286V144.348V142.944H210.226L209.518 144.348L207.514 147.996L205.51 144.348L204.802 142.944H204.742V144.348V150H203.758ZM217.216 150V148.992H217.168C217.048 149.288 216.856 149.556 216.592 149.796C216.336 150.028 215.948 150.144 215.428 150.144C214.796 150.144 214.288 149.94 213.904 149.532C213.528 149.116 213.34 148.532 213.34 147.78V143.808H214.3V147.612C214.3 148.164 214.42 148.58 214.66 148.86C214.9 149.14 215.252 149.28 215.716 149.28C215.972 149.28 216.212 149.24 216.436 149.16C216.668 149.072 216.856 148.94 217 148.764C217.144 148.588 217.216 148.364 217.216 148.092V143.808H218.176V150H217.216ZM222.092 150H221.24C220.912 150 220.66 149.908 220.484 149.724C220.308 149.532 220.22 149.292 220.22 149.004V141.12H221.18V149.16H222.092V150ZM225.999 150H224.799C224.471 150 224.219 149.904 224.043 149.712C223.867 149.52 223.779 149.276 223.779 148.98V144.648H222.759V143.808H223.335C223.543 143.808 223.683 143.768 223.755 143.688C223.835 143.6 223.875 143.452 223.875 143.244V142.092H224.739V143.808H226.095V144.648H224.739V149.16H225.999V150ZM228.118 142.356C227.918 142.356 227.77 142.308 227.674 142.212C227.578 142.108 227.53 141.976 227.53 141.816V141.66C227.53 141.5 227.578 141.372 227.674 141.276C227.77 141.172 227.918 141.12 228.118 141.12C228.326 141.12 228.474 141.172 228.562 141.276C228.658 141.372 228.706 141.5 228.706 141.66V141.816C228.706 141.976 228.658 142.108 228.562 142.212C228.474 142.308 228.326 142.356 228.118 142.356ZM227.638 150V143.808H228.598V150H227.638ZM232.498 150.144C231.93 150.144 231.45 150.036 231.058 149.82C230.666 149.596 230.33 149.3 230.05 148.932L230.734 148.38C230.974 148.676 231.242 148.908 231.538 149.076C231.834 149.244 232.178 149.328 232.57 149.328C232.978 149.328 233.294 149.24 233.518 149.064C233.75 148.888 233.866 148.64 233.866 148.32C233.866 148.08 233.786 147.872 233.626 147.696C233.474 147.52 233.194 147.404 232.786 147.348L232.294 147.276C231.918 147.22 231.578 147.128 231.274 147C230.97 146.864 230.73 146.676 230.554 146.436C230.386 146.188 230.302 145.872 230.302 145.488C230.302 144.872 230.51 144.416 230.926 144.12C231.35 143.816 231.878 143.664 232.51 143.664C232.846 143.664 233.142 143.704 233.398 143.784C233.662 143.864 233.898 143.98 234.106 144.132C234.314 144.276 234.502 144.452 234.67 144.66L234.034 145.236C233.898 145.044 233.698 144.872 233.434 144.72C233.17 144.56 232.838 144.48 232.438 144.48C232.046 144.48 231.746 144.568 231.538 144.744C231.33 144.912 231.226 145.144 231.226 145.44C231.226 145.736 231.326 145.956 231.526 146.1C231.734 146.236 232.03 146.336 232.414 146.4L232.894 146.472C233.582 146.576 234.07 146.776 234.358 147.072C234.646 147.36 234.79 147.74 234.79 148.212C234.79 148.612 234.698 148.956 234.514 149.244C234.33 149.532 234.066 149.756 233.722 149.916C233.378 150.068 232.97 150.144 232.498 150.144ZM238.826 150.144C238.274 150.144 237.786 150.012 237.362 149.748C236.946 149.476 236.618 149.1 236.378 148.62C236.146 148.132 236.03 147.56 236.03 146.904C236.03 146.248 236.146 145.68 236.378 145.2C236.618 144.712 236.946 144.336 237.362 144.072C237.786 143.8 238.274 143.664 238.826 143.664C239.378 143.664 239.862 143.8 240.278 144.072C240.702 144.336 241.03 144.712 241.262 145.2C241.502 145.68 241.622 146.248 241.622 146.904C241.622 147.56 241.502 148.132 241.262 148.62C241.03 149.1 240.702 149.476 240.278 149.748C239.862 150.012 239.378 150.144 238.826 150.144ZM238.826 149.292C239.346 149.292 239.77 149.132 240.098 148.812C240.426 148.492 240.59 148.004 240.59 147.348V146.46C240.59 145.804 240.426 145.316 240.098 144.996C239.77 144.676 239.346 144.516 238.826 144.516C238.314 144.516 237.89 144.676 237.554 144.996C237.226 145.316 237.062 145.804 237.062 146.46V147.348C237.062 148.004 237.226 148.492 237.554 148.812C237.89 149.132 238.314 149.292 238.826 149.292ZM247.017 150V148.992H246.969C246.849 149.288 246.657 149.556 246.393 149.796C246.137 150.028 245.749 150.144 245.229 150.144C244.597 150.144 244.089 149.94 243.705 149.532C243.329 149.116 243.141 148.532 243.141 147.78V143.808H244.101V147.612C244.101 148.164 244.221 148.58 244.461 148.86C244.701 149.14 245.053 149.28 245.517 149.28C245.773 149.28 246.013 149.24 246.237 149.16C246.469 149.072 246.657 148.94 246.801 148.764C246.945 148.588 247.017 148.364 247.017 148.092V143.808H247.977V150H247.017ZM250.981 150H250.021V143.808H250.981V144.948H251.041C251.113 144.748 251.225 144.564 251.377 144.396C251.529 144.22 251.725 144.08 251.965 143.976C252.205 143.864 252.493 143.808 252.829 143.808H253.201V144.768H252.637C252.293 144.768 251.997 144.816 251.749 144.912C251.501 145 251.309 145.12 251.173 145.272C251.045 145.424 250.981 145.6 250.981 145.8V150ZM256.673 150.144C255.801 150.144 255.121 149.852 254.633 149.268C254.153 148.684 253.913 147.896 253.913 146.904C253.913 145.912 254.153 145.124 254.633 144.54C255.121 143.956 255.801 143.664 256.673 143.664C257.289 143.664 257.785 143.8 258.161 144.072C258.537 144.344 258.813 144.692 258.989 145.116L258.185 145.524C258.073 145.204 257.885 144.956 257.621 144.78C257.365 144.604 257.049 144.516 256.673 144.516C256.105 144.516 255.673 144.692 255.377 145.044C255.089 145.388 254.945 145.832 254.945 146.376V147.432C254.945 147.968 255.089 148.412 255.377 148.764C255.673 149.116 256.105 149.292 256.673 149.292C257.065 149.292 257.401 149.2 257.681 149.016C257.961 148.832 258.185 148.564 258.353 148.212L259.049 148.68C258.849 149.12 258.549 149.476 258.149 149.748C257.757 150.012 257.265 150.144 256.673 150.144ZM260.884 142.356C260.684 142.356 260.536 142.308 260.44 142.212C260.344 142.108 260.296 141.976 260.296 141.816V141.66C260.296 141.5 260.344 141.372 260.44 141.276C260.536 141.172 260.684 141.12 260.884 141.12C261.092 141.12 261.24 141.172 261.328 141.276C261.424 141.372 261.472 141.5 261.472 141.66V141.816C261.472 141.976 261.424 142.108 261.328 142.212C261.24 142.308 261.092 142.356 260.884 142.356ZM260.404 150V143.808H261.364V150H260.404ZM264.364 150H263.404V143.808H264.364V144.816H264.412C264.564 144.464 264.776 144.184 265.048 143.976C265.328 143.768 265.7 143.664 266.164 143.664C266.804 143.664 267.308 143.872 267.676 144.288C268.052 144.696 268.24 145.276 268.24 146.028V150H267.28V146.196C267.28 145.644 267.16 145.228 266.92 144.948C266.688 144.668 266.34 144.528 265.876 144.528C265.62 144.528 265.376 144.572 265.144 144.66C264.912 144.74 264.724 144.868 264.58 145.044C264.436 145.22 264.364 145.44 264.364 145.704V150ZM275.444 150.684C275.444 151.108 275.332 151.456 275.108 151.728C274.884 152.008 274.548 152.212 274.1 152.34C273.66 152.476 273.108 152.544 272.444 152.544C271.804 152.544 271.28 152.484 270.872 152.364C270.472 152.244 270.18 152.068 269.996 151.836C269.812 151.612 269.72 151.34 269.72 151.02C269.72 150.684 269.808 150.42 269.984 150.228C270.16 150.036 270.4 149.9 270.704 149.82V149.688C270.528 149.6 270.392 149.488 270.296 149.352C270.2 149.208 270.152 149.032 270.152 148.824C270.152 148.512 270.252 148.276 270.452 148.116C270.652 147.948 270.908 147.824 271.22 147.744V147.696C270.852 147.52 270.564 147.268 270.356 146.94C270.156 146.612 270.056 146.232 270.056 145.8C270.056 145.376 270.152 145.004 270.344 144.684C270.536 144.364 270.808 144.116 271.16 143.94C271.512 143.756 271.92 143.664 272.384 143.664C272.608 143.664 272.816 143.684 273.008 143.724C273.208 143.764 273.392 143.824 273.56 143.904V143.796C273.56 143.556 273.616 143.36 273.728 143.208C273.84 143.048 274.024 142.968 274.28 142.968H275.204V143.808H274.028V144.204C274.252 144.396 274.424 144.628 274.544 144.9C274.672 145.172 274.736 145.472 274.736 145.8C274.736 146.216 274.64 146.588 274.448 146.916C274.256 147.236 273.984 147.488 273.632 147.672C273.28 147.848 272.868 147.936 272.396 147.936C272.292 147.936 272.188 147.932 272.084 147.924C271.98 147.908 271.884 147.892 271.796 147.876C271.596 147.932 271.408 148.016 271.232 148.128C271.064 148.232 270.98 148.38 270.98 148.572C270.98 148.756 271.068 148.88 271.244 148.944C271.42 149.008 271.648 149.04 271.928 149.04H273.248C274.016 149.04 274.572 149.188 274.916 149.484C275.268 149.772 275.444 150.172 275.444 150.684ZM274.544 150.756C274.544 150.508 274.448 150.308 274.256 150.156C274.072 150.012 273.74 149.94 273.26 149.94H271.196C270.996 150.028 270.848 150.14 270.752 150.276C270.664 150.42 270.62 150.588 270.62 150.78C270.62 151.052 270.72 151.284 270.92 151.476C271.128 151.668 271.476 151.764 271.964 151.764H272.852C273.388 151.764 273.804 151.68 274.1 151.512C274.396 151.344 274.544 151.092 274.544 150.756ZM272.396 147.168C272.804 147.168 273.128 147.072 273.368 146.88C273.608 146.68 273.728 146.376 273.728 145.968V145.632C273.728 145.224 273.608 144.924 273.368 144.732C273.128 144.532 272.804 144.432 272.396 144.432C271.988 144.432 271.664 144.532 271.424 144.732C271.184 144.924 271.064 145.224 271.064 145.632V145.968C271.064 146.376 271.184 146.68 271.424 146.88C271.664 147.072 271.988 147.168 272.396 147.168ZM280.504 146.4V150H279.496V141.624H282.832C283.32 141.624 283.736 141.716 284.08 141.9C284.432 142.084 284.7 142.352 284.884 142.704C285.076 143.056 285.172 143.488 285.172 144C285.172 144.608 285.028 145.112 284.74 145.512C284.452 145.912 284.036 146.176 283.492 146.304L285.412 150H284.272L282.46 146.4H280.504ZM280.504 145.536H282.832C283.096 145.536 283.32 145.492 283.504 145.404C283.696 145.308 283.84 145.172 283.936 144.996C284.04 144.812 284.092 144.592 284.092 144.336V143.712C284.092 143.456 284.04 143.24 283.936 143.064C283.84 142.88 283.696 142.744 283.504 142.656C283.32 142.56 283.096 142.512 282.832 142.512H280.504V145.536ZM287.556 142.356C287.356 142.356 287.208 142.308 287.112 142.212C287.016 142.108 286.968 141.976 286.968 141.816V141.66C286.968 141.5 287.016 141.372 287.112 141.276C287.208 141.172 287.356 141.12 287.556 141.12C287.764 141.12 287.912 141.172 288 141.276C288.096 141.372 288.144 141.5 288.144 141.66V141.816C288.144 141.976 288.096 142.108 288 142.212C287.912 142.308 287.764 142.356 287.556 142.356ZM287.076 150V143.808H288.036V150H287.076ZM291.936 150.144C291.368 150.144 290.888 150.036 290.496 149.82C290.104 149.596 289.768 149.3 289.488 148.932L290.172 148.38C290.412 148.676 290.68 148.908 290.976 149.076C291.272 149.244 291.616 149.328 292.008 149.328C292.416 149.328 292.732 149.24 292.956 149.064C293.188 148.888 293.304 148.64 293.304 148.32C293.304 148.08 293.224 147.872 293.064 147.696C292.912 147.52 292.632 147.404 292.224 147.348L291.732 147.276C291.356 147.22 291.016 147.128 290.712 147C290.408 146.864 290.168 146.676 289.992 146.436C289.824 146.188 289.74 145.872 289.74 145.488C289.74 144.872 289.948 144.416 290.364 144.12C290.788 143.816 291.316 143.664 291.948 143.664C292.284 143.664 292.58 143.704 292.836 143.784C293.1 143.864 293.336 143.98 293.544 144.132C293.752 144.276 293.94 144.452 294.108 144.66L293.472 145.236C293.336 145.044 293.136 144.872 292.872 144.72C292.608 144.56 292.276 144.48 291.876 144.48C291.484 144.48 291.184 144.568 290.976 144.744C290.768 144.912 290.664 145.144 290.664 145.44C290.664 145.736 290.764 145.956 290.964 146.1C291.172 146.236 291.468 146.336 291.852 146.4L292.332 146.472C293.02 146.576 293.508 146.776 293.796 147.072C294.084 147.36 294.228 147.74 294.228 148.212C294.228 148.612 294.136 148.956 293.952 149.244C293.768 149.532 293.504 149.756 293.16 149.916C292.816 150.068 292.408 150.144 291.936 150.144ZM295.924 150V141.12H296.884V145.644V146.748H296.932L297.88 145.692L299.632 143.808H300.796L298.504 146.256L301.024 150H299.86L297.808 146.844L296.884 147.792V150H295.924Z" fill="#77828B"/>
<rect x="202.642" y="194" width="120" height="120" fill="#1ECC91"/>
<rect x="202.642" y="194" width="120" height="43" fill="#FCC937"/>
<rect x="282.642" y="301" width="40" height="13" fill="#CA85FF"/>
<rect x="202.642" y="194" width="45" height="43" fill="#FB6962"/>
<rect x="202.642" y="194" width="120" height="28" fill="#FB6962"/>
<rect x="340.642" y="214" width="8" height="8" fill="#FB6962"/>
<rect x="356.642" y="215" width="41" height="6" fill="#F1F1F1"/>
<rect x="340.642" y="238" width="8" height="8" fill="#FCC937"/>
<rect x="356.642" y="239" width="41" height="6" fill="#F1F1F1"/>
<rect x="340.642" y="262" width="8" height="8" fill="#1ECC91"/>
<rect x="356.642" y="263" width="41" height="6" fill="#F1F1F1"/>
<rect x="340.642" y="286" width="8" height="8" fill="#CA85FF"/>
<rect x="356.642" y="287" width="41" height="6" fill="#F1F1F1"/>
<rect x="415.642" y="194" width="120" height="120" fill="#1ECC91"/>
<rect x="415.642" y="194" width="120" height="64" fill="#FCC937"/>
<rect x="415.642" y="194" width="74" height="64" fill="#FB6962"/>
<rect x="415.642" y="194" width="120" height="49" fill="#FB6962"/>
<rect x="553.642" y="226" width="8" height="8" fill="#FB6962"/>
<rect x="569.642" y="227" width="41" height="6" fill="#F1F1F1"/>
<rect x="553.642" y="250" width="8" height="8" fill="#FCC937"/>
<rect x="569.642" y="251" width="41" height="6" fill="#F1F1F1"/>
<rect x="553.642" y="274" width="8" height="8" fill="#1ECC91"/>
<rect x="569.642" y="275" width="41" height="6" fill="#F1F1F1"/>
<rect x="202.642" y="354" width="163" height="10" fill="#F1F1F1"/>
<g clip-path="url(#clip1_1_11)">
<rect x="202.642" y="380" width="32" height="80" fill="#1ECC91"/>
<rect x="202.642" y="380" width="32" height="13" fill="#CA85FF"/>
<rect x="202.642" y="429" width="32" height="31" fill="#FB6962"/>
<rect x="202.642" y="412" width="32" height="31" fill="#FCC937"/>
</g>
<g clip-path="url(#clip2_1_11)">
<rect x="250.642" y="380" width="32" height="80" fill="#1ECC91"/>
<rect x="250.642" y="380" width="32" height="13" fill="#CA85FF"/>
<rect x="250.642" y="429" width="32" height="31" fill="#FB6962"/>
<rect x="250.642" y="412" width="32" height="31" fill="#FCC937"/>
</g>
<g clip-path="url(#clip3_1_11)">
<rect x="298.642" y="380" width="32" height="80" fill="#1ECC91"/>
<rect x="298.642" y="380" width="32" height="9" fill="#CA85FF"/>
<rect x="298.642" y="429" width="32" height="31" fill="#FB6962"/>
<rect x="298.642" y="412" width="32" height="25" fill="#FCC937"/>
</g>
<g clip-path="url(#clip4_1_11)">
<rect x="346.642" y="380" width="32" height="80" fill="#1ECC91"/>
<rect x="346.642" y="380" width="32" height="9" fill="#CA85FF"/>
<rect x="346.642" y="417" width="32" height="43" fill="#FB6962"/>
<rect x="346.642" y="406" width="32" height="23" fill="#FCC937"/>
</g>
<g clip-path="url(#clip5_1_11)">
<rect x="394.642" y="380" width="32" height="80" fill="#1ECC91"/>
<rect x="394.642" y="380" width="32" height="9" fill="#CA85FF"/>
<rect x="394.642" y="417" width="32" height="43" fill="#FB6962"/>
<rect x="394.642" y="403" width="32" height="19" fill="#FCC937"/>
</g>
<g clip-path="url(#clip6_1_11)">
<rect x="442.642" y="380" width="32" height="80" fill="#1ECC91"/>
<rect x="442.642" y="380" width="32" height="9" fill="#CA85FF"/>
<rect x="442.642" y="417" width="32" height="43" fill="#FB6962"/>
<rect x="442.642" y="403" width="32" height="19" fill="#FCC937"/>
</g>
<g clip-path="url(#clip7_1_11)">
<rect x="490.642" y="380" width="32" height="80" fill="#1ECC91"/>
<rect x="490.642" y="380" width="32" height="9" fill="#CA85FF"/>
<rect x="490.642" y="417" width="32" height="43" fill="#FB6962"/>
<rect x="490.642" y="403" width="32" height="14" fill="#FCC937"/>
</g>
<g clip-path="url(#clip8_1_11)">
<rect x="538.642" y="380" width="32" height="80" fill="#1ECC91"/>
<rect x="538.642" y="380" width="32" height="5" fill="#CA85FF"/>
<rect x="538.642" y="411" width="32" height="49" fill="#FB6962"/>
<rect x="538.642" y="398" width="32" height="15" fill="#FCC937"/>
</g>
<rect x="586.642" y="380" width="8" height="8" fill="#FB6962"/>
<rect x="602.642" y="381" width="41" height="6" fill="#F1F1F1"/>
<rect x="586.642" y="404" width="8" height="8" fill="#FCC937"/>
<rect x="602.642" y="405" width="41" height="6" fill="#F1F1F1"/>
<rect x="586.642" y="428" width="8" height="8" fill="#1ECC91"/>
<rect x="602.642" y="429" width="41" height="6" fill="#F1F1F1"/>
<rect x="586.642" y="452" width="8" height="8" fill="#CA85FF"/>
<rect x="602.642" y="453" width="41" height="6" fill="#F1F1F1"/>
<rect y="69" width="158" height="32" fill="#F1F1F1"/>
<rect x="24" y="79" width="12" height="12" fill="#F7F7F7"/>
<rect x="44" y="81" width="81" height="8" fill="#F7F7F7"/>
<rect x="24" y="109" width="12" height="12" fill="#F1F1F1"/>
<rect x="44" y="111" width="81" height="8" fill="#F1F1F1"/>
<rect x="24" y="129" width="12" height="12" fill="#F1F1F1"/>
<rect x="44" y="131" width="52" height="8" fill="#F1F1F1"/>
<rect x="214" y="29" width="98" height="6" fill="#F1F1F1"/>
<rect x="203" y="85" width="163" height="16" fill="#F1F1F1"/>
<rect x="203.5" y="18.5" width="240" height="26" stroke="#F1F1F1"/>
<path d="M434.354 37.6463L431.224 34.5175C432.131 33.4286 432.584 32.0319 432.487 30.618C432.391 29.204 431.753 27.8818 430.706 26.9262C429.659 25.9707 428.285 25.4554 426.868 25.4876C425.451 25.5198 424.101 26.097 423.099 27.0991C422.097 28.1012 421.52 29.4511 421.488 30.8679C421.455 32.2848 421.971 33.6595 422.926 34.7061C423.882 35.7527 425.204 36.3906 426.618 36.4871C428.032 36.5837 429.429 36.1314 430.517 35.2244L433.646 38.3538C433.693 38.4002 433.748 38.4371 433.809 38.4622C433.869 38.4873 433.934 38.5003 434 38.5003C434.066 38.5003 434.131 38.4873 434.191 38.4622C434.252 38.4371 434.307 38.4002 434.354 38.3538C434.4 38.3073 434.437 38.2521 434.462 38.1914C434.487 38.1308 434.5 38.0657 434.5 38C434.5 37.9343 434.487 37.8692 434.462 37.8086C434.437 37.7479 434.4 37.6927 434.354 37.6463ZM422.5 31C422.5 30.11 422.764 29.24 423.258 28.4999C423.753 27.7599 424.456 27.1831 425.278 26.8425C426.1 26.5019 427.005 26.4128 427.878 26.5865C428.751 26.7601 429.553 27.1887 430.182 27.818C430.811 28.4474 431.24 29.2492 431.414 30.1221C431.587 30.995 431.498 31.8998 431.157 32.7221C430.817 33.5443 430.24 34.2471 429.5 34.7416C428.76 35.2361 427.89 35.5 427 35.5C425.807 35.4987 424.663 35.0241 423.819 34.1805C422.976 33.3369 422.501 32.1931 422.5 31Z" fill="#77828B"/>
<rect x="52" y="179" width="51" height="6" fill="#F1F1F1"/>
<rect x="24.5" y="168.5" width="108" height="26" stroke="#F1F1F1"/>
<path d="M45.3538 187.646L42.2244 184.518C43.1314 183.429 43.5837 182.032 43.4872 180.618C43.3906 179.204 42.7527 177.882 41.7061 176.926C40.6595 175.971 39.2848 175.455 37.8679 175.488C36.4511 175.52 35.1012 176.097 34.0991 177.099C33.097 178.101 32.5198 179.451 32.4876 180.868C32.4554 182.285 32.9707 183.659 33.9262 184.706C34.8818 185.753 36.2041 186.391 37.618 186.487C39.0319 186.584 40.4286 186.131 41.5175 185.224L44.6463 188.354C44.6927 188.4 44.7479 188.437 44.8086 188.462C44.8693 188.487 44.9343 188.5 45 188.5C45.0657 188.5 45.1308 188.487 45.1915 188.462C45.2521 188.437 45.3073 188.4 45.3538 188.354C45.4002 188.307 45.4371 188.252 45.4622 188.191C45.4873 188.131 45.5003 188.066 45.5003 188C45.5003 187.934 45.4873 187.869 45.4622 187.809C45.4371 187.748 45.4002 187.693 45.3538 187.646ZM33.5 181C33.5 180.11 33.7639 179.24 34.2584 178.5C34.7529 177.76 35.4557 177.183 36.2779 176.843C37.1002 176.502 38.005 176.413 38.8779 176.586C39.7508 176.76 40.5526 177.189 41.182 177.818C41.8113 178.447 42.2399 179.249 42.4135 180.122C42.5872 180.995 42.4981 181.9 42.1575 182.722C41.8169 183.544 41.2401 184.247 40.5001 184.742C39.76 185.236 38.89 185.5 38 185.5C36.8069 185.499 35.6631 185.024 34.8195 184.181C33.9759 183.337 33.5013 182.193 33.5 181Z" fill="#F1F1F1"/>
<path d="M570 25.5C568.878 25.4998 567.775 25.7901 566.798 26.3426C565.821 26.8952 565.004 27.6913 564.426 28.6533C563.849 29.6153 563.53 30.7106 563.501 31.8324C563.472 32.9542 563.734 34.0645 564.261 35.055L563.552 37.1831C563.493 37.3593 563.485 37.5484 563.527 37.7292C563.57 37.9099 563.662 38.0753 563.793 38.2066C563.925 38.3379 564.09 38.4301 564.271 38.4728C564.452 38.5154 564.641 38.5069 564.817 38.4481L566.945 37.7388C567.817 38.2024 568.783 38.4614 569.769 38.496C570.756 38.5306 571.738 38.34 572.64 37.9386C573.542 37.5372 574.341 36.9355 574.976 36.1793C575.61 35.4231 576.065 34.5322 576.304 33.5742C576.543 32.6162 576.561 31.6164 576.356 30.6505C576.151 29.6847 575.728 28.7782 575.121 27.9999C574.513 27.2217 573.736 26.5921 572.849 26.1589C571.962 25.7257 570.987 25.5004 570 25.5ZM570 37.5C569.033 37.5007 568.083 37.246 567.246 36.7619C567.185 36.7263 567.117 36.7042 567.046 36.697C566.976 36.6898 566.905 36.6976 566.838 36.72L564.5 37.5L565.279 35.1625C565.302 35.0953 565.31 35.0242 565.303 34.9537C565.296 34.8832 565.274 34.8151 565.238 34.7537C564.632 33.7056 564.388 32.4866 564.546 31.286C564.703 30.0853 565.252 28.9701 566.108 28.1134C566.963 27.2566 568.078 26.7062 569.278 26.5475C570.479 26.3887 571.698 26.6306 572.747 27.2356C573.796 27.8405 574.616 28.7747 575.08 29.8932C575.543 31.0117 575.625 32.2521 575.312 33.4218C574.999 34.5915 574.309 35.6253 573.348 36.3626C572.388 37.1 571.211 37.4998 570 37.5Z" fill="#77828B"/>
<path d="M599.863 34.9963C599.516 34.3988 599 32.7081 599 30.5C599 29.1739 598.473 27.9021 597.536 26.9645C596.598 26.0268 595.326 25.5 594 25.5C592.674 25.5 591.402 26.0268 590.464 26.9645C589.527 27.9021 589 29.1739 589 30.5C589 32.7088 588.484 34.3988 588.137 34.9963C588.048 35.1482 588.001 35.3207 588.001 35.4966C588 35.6724 588.046 35.8453 588.133 35.9978C588.221 36.1503 588.347 36.277 588.499 36.3652C588.651 36.4534 588.824 36.4999 589 36.5H591.551C591.666 37.0645 591.973 37.5718 592.419 37.9361C592.865 38.3004 593.424 38.4994 594 38.4994C594.576 38.4994 595.135 38.3004 595.581 37.9361C596.027 37.5718 596.334 37.0645 596.449 36.5H599C599.176 36.4998 599.348 36.4532 599.5 36.365C599.653 36.2768 599.779 36.15 599.866 35.9975C599.954 35.845 599.999 35.6722 599.999 35.4964C599.998 35.3206 599.951 35.1481 599.863 34.9963ZM594 37.5C593.69 37.4999 593.387 37.4037 593.134 37.2246C592.881 37.0455 592.69 36.7924 592.586 36.5H595.414C595.31 36.7924 595.119 37.0455 594.866 37.2246C594.613 37.4037 594.31 37.4999 594 37.5ZM589 35.5C589.481 34.6725 590 32.755 590 30.5C590 29.4391 590.421 28.4217 591.172 27.6716C591.922 26.9214 592.939 26.5 594 26.5C595.061 26.5 596.078 26.9214 596.828 27.6716C597.579 28.4217 598 29.4391 598 30.5C598 32.7531 598.518 34.6706 599 35.5H589Z" fill="#77828B"/>
<path d="M618 25.5C616.714 25.5 615.458 25.8812 614.389 26.5954C613.32 27.3097 612.487 28.3248 611.995 29.5126C611.503 30.7003 611.374 32.0072 611.625 33.2681C611.876 34.529 612.495 35.6872 613.404 36.5962C614.313 37.5052 615.471 38.1243 616.732 38.3751C617.993 38.6259 619.3 38.4972 620.487 38.0052C621.675 37.5132 622.69 36.6801 623.405 35.6112C624.119 34.5423 624.5 33.2856 624.5 32C624.498 30.2767 623.813 28.6244 622.594 27.4058C621.376 26.1872 619.723 25.5018 618 25.5ZM614.63 36.3438C614.992 35.7781 615.49 35.3125 616.079 34.99C616.668 34.6676 617.329 34.4985 618 34.4985C618.671 34.4985 619.332 34.6676 619.921 34.99C620.51 35.3125 621.008 35.7781 621.37 36.3438C620.406 37.0931 619.221 37.5 618 37.5C616.779 37.5 615.594 37.0931 614.63 36.3438ZM616 31.5C616 31.1044 616.117 30.7178 616.337 30.3889C616.557 30.06 616.869 29.8036 617.235 29.6522C617.6 29.5009 618.002 29.4613 618.39 29.5384C618.778 29.6156 619.135 29.8061 619.414 30.0858C619.694 30.3655 619.884 30.7219 619.962 31.1098C620.039 31.4978 619.999 31.8999 619.848 32.2654C619.696 32.6308 619.44 32.9432 619.111 33.1629C618.782 33.3827 618.396 33.5 618 33.5C617.47 33.5 616.961 33.2893 616.586 32.9142C616.211 32.5391 616 32.0304 616 31.5ZM622.11 35.6506C621.552 34.8425 620.768 34.2174 619.856 33.8538C620.346 33.4679 620.704 32.939 620.879 32.3406C621.054 31.7421 621.039 31.1039 620.835 30.5147C620.63 29.9255 620.248 29.4146 619.74 29.0529C619.232 28.6913 618.624 28.497 618 28.497C617.376 28.497 616.768 28.6913 616.26 29.0529C615.752 29.4146 615.37 29.9255 615.165 30.5147C614.961 31.1039 614.946 31.7421 615.121 32.3406C615.296 32.939 615.654 33.4679 616.144 33.8538C615.232 34.2174 614.448 34.8425 613.89 35.6506C613.185 34.8582 612.725 33.879 612.564 32.8309C612.403 31.7828 612.548 30.7106 612.982 29.7432C613.417 28.7758 614.121 27.9546 615.012 27.3785C615.902 26.8023 616.94 26.4958 618 26.4958C619.06 26.4958 620.098 26.8023 620.988 27.3785C621.879 27.9546 622.583 28.7758 623.018 29.7432C623.452 30.7106 623.597 31.7828 623.436 32.8309C623.275 33.879 622.815 34.8582 622.11 35.6506Z" fill="#77828B"/>
<circle cx="598" cy="27" r="2" fill="#FB6962"/>
</g>
<defs>
<clipPath id="clip0_1_11">
<rect width="852" height="520" rx="16" fill="white"/>
</clipPath>
<clipPath id="clip1_1_11">
<rect width="32" height="80" fill="white" transform="translate(202.642 380)"/>
</clipPath>
<clipPath id="clip2_1_11">
<rect width="32" height="80" fill="white" transform="translate(250.642 380)"/>
</clipPath>
<clipPath id="clip3_1_11">
<rect width="32" height="80" fill="white" transform="translate(298.642 380)"/>
</clipPath>
<clipPath id="clip4_1_11">
<rect width="32" height="80" fill="white" transform="translate(346.642 380)"/>
</clipPath>
<clipPath id="clip5_1_11">
<rect width="32" height="80" fill="white" transform="translate(394.642 380)"/>
</clipPath>
<clipPath id="clip6_1_11">
<rect width="32" height="80" fill="white" transform="translate(442.642 380)"/>
</clipPath>
<clipPath id="clip7_1_11">
<rect width="32" height="80" fill="white" transform="translate(490.642 380)"/>
</clipPath>
<clipPath id="clip8_1_11">
<rect width="32" height="80" fill="white" transform="translate(538.642 380)"/>
</clipPath>
</defs>
</svg>
