<svg width="175" height="36" viewBox="0 0 175 36" fill="none" xmlns="http://www.w3.org/2000/svg">
<path d="M43.5498 14.4324C42.8363 13.4887 42.0767 13.0743 40.2353 13.0743C38.3938 13.0743 37.6342 13.6958 37.6342 14.8697C37.6342 16.0436 38.9693 16.8493 40.7417 16.9874C43.2506 17.1715 45.5524 17.9081 45.5524 20.9695C45.5524 24.0309 43.9642 24.9055 40.5115 24.9055C37.0588 24.9055 36.3683 24.0769 35.3555 22.6728L36.9437 21.5449C37.6573 22.5117 38.624 22.903 40.5575 22.903C42.491 22.903 43.4117 22.2124 43.4117 20.9925C43.4117 19.7725 42.5601 19.036 39.959 18.8518C37.7033 18.6907 35.4936 17.793 35.4936 14.8697C35.4936 11.9465 37.1048 11.0718 40.2813 11.0718C43.4578 11.0718 44.1023 11.6242 45.1611 13.3045L43.5498 14.4324Z" fill="white"/>
<path d="M48.1074 6.21484H50.5243V8.63172H48.1074V6.21484ZM48.2225 11.3018H50.3632V24.6752H48.2225V11.3018Z" fill="white"/>
<path d="M53.5854 6.21484H55.7261V20.0256C55.7261 21.4757 55.7952 22.6957 58.0049 22.6957V24.6752C54.6213 24.6752 53.5854 23.3402 53.5854 20.555V6.21484Z" fill="white"/>
<path d="M60.5142 6.21484H62.931V8.63172H60.5142V6.21484ZM60.6523 11.3018H62.7929V24.6752H60.6523V11.3018Z" fill="white"/>
<path d="M75.7518 22.6498C74.9231 24.192 73.2888 24.9055 71.1252 24.9055C67.4653 24.9055 65.3477 22.5577 65.3477 18.8518V17.0795C65.3477 13.2815 67.5113 11.0718 71.1252 11.0718C74.739 11.0718 74.785 11.7853 75.7518 13.1664L74.0714 14.3403C73.473 13.4887 72.3681 13.0053 71.1252 13.0053C68.8234 13.0053 67.4883 14.5475 67.4883 17.0795V18.8518C67.4883 21.1536 68.5702 22.972 71.1252 22.972C73.6801 22.972 73.542 22.5347 74.0945 21.4759L75.7518 22.6498Z" fill="white"/>
<path d="M87.6753 18.8518C87.6753 22.3275 85.972 24.9055 82.105 24.9055C78.238 24.9055 76.5347 22.5577 76.5347 18.8518V17.0795C76.5347 13.2815 78.6063 11.0718 82.105 11.0718C85.6037 11.0718 87.6753 13.2355 87.6753 17.0795V18.8518ZM85.5347 18.8518V17.0795C85.5347 14.5475 84.2917 13.0053 82.105 13.0053C79.9183 13.0053 78.6753 14.5475 78.6753 17.0795V18.8518C78.6753 21.1536 79.6421 22.972 82.105 22.972C84.5679 22.972 85.5347 21.1306 85.5347 18.8518Z" fill="white"/>
<path d="M89.8157 11.3016H91.9563V12.6137C92.6239 11.6009 93.5676 11.0945 95.5471 11.0945C98.4014 11.0945 100.427 12.5906 100.427 16.3426V24.6981H98.2863V16.3656C98.2863 13.6725 96.8131 13.074 95.2249 13.074C93.6366 13.074 91.9563 14.5011 91.9563 16.3426V24.6981H89.8157V11.3247V11.3016Z" fill="white"/>
<path d="M113.202 22.6498C112.258 24.2841 110.716 24.9286 108.299 24.9286C104.294 24.9286 102.36 22.3275 102.36 18.8748V17.0564C102.36 13.0053 104.386 11.0718 107.885 11.0718C111.383 11.0718 113.409 13.2585 113.409 17.3326V18.8518H105.79C105.813 20.6933 106.411 22.0283 108.299 22.0283C110.186 22.0283 110.163 21.591 110.67 20.8774L113.202 22.6498ZM105.767 16.4119H109.979C109.91 14.6626 109.197 13.949 107.908 13.949C106.619 13.949 105.905 14.8928 105.767 16.4119Z" fill="white"/>
<path d="M122.294 24.6752L119.693 20.6011L117.092 24.6752H113.317L117.714 17.8159L113.662 11.2788H117.437L119.693 15.0998L121.949 11.2788H125.724L121.673 17.8159L126.092 24.6752H122.294Z" fill="white"/>
<path d="M138.522 18.8747C138.522 22.3504 136.749 24.9284 133.297 24.9284C129.844 24.9284 130.972 24.6522 130.35 24.1458V29.7621H126.921V11.3018H130.35V12.1765C130.995 11.4629 131.962 11.0486 133.32 11.0486C136.427 11.0486 138.522 13.2123 138.522 17.0332V18.8517V18.8747ZM135.115 18.6675V17.2864C135.115 15.1458 134.448 13.9719 132.767 13.9719C131.087 13.9719 130.396 15.0537 130.396 16.9872V18.6675C130.396 20.601 130.857 22.0511 132.767 22.0511C134.678 22.0511 135.115 20.601 135.115 18.6675Z" fill="white"/>
<path d="M150.468 22.6498C149.524 24.2841 147.982 24.9286 145.565 24.9286C141.56 24.9286 139.627 22.3275 139.627 18.8748V17.0564C139.627 13.0053 141.652 11.0718 145.151 11.0718C148.65 11.0718 150.675 13.2585 150.675 17.3326V18.8518H143.056C143.079 20.6933 143.678 22.0283 145.565 22.0283C147.453 22.0283 147.43 21.591 147.936 20.8774L150.468 22.6498ZM143.033 16.4119H147.246C147.177 14.6626 146.463 13.949 145.174 13.949C143.885 13.949 143.171 14.8928 143.033 16.4119Z" fill="white"/>
<path d="M159.698 15.0305C159.353 14.5242 158.869 14.0178 158.018 14.0178C156.729 14.0178 155.877 14.9615 155.877 16.8259V24.6981H152.447V11.3247H155.785V12.4525C156.245 11.785 157.12 11.0945 158.708 11.0945C160.296 11.0945 161.516 11.785 162.322 13.1891L159.698 15.0536V15.0305Z" fill="white"/>
<path d="M162.967 11.3016V7.08936H166.373V11.3016H169.642V14.2019H166.373V19.7952C166.373 21.1303 167.271 21.7057 168.537 21.7057H169.642V24.6981H168.192C164.946 24.6981 162.967 23.7773 162.967 20.3247V14.2019V11.3016Z" fill="white"/>
<path d="M17.1942 9.23018C17.1481 10.2199 16.3885 11.4169 15.5139 11.8772L6.65197 16.5959C5.77729 17.0563 5.10977 16.6419 5.15581 15.6522L5.31693 12.3836C5.36297 11.3939 6.12256 10.1969 6.99724 9.73657L15.8591 5.0179C16.7338 4.55754 17.4013 4.97187 17.3553 5.96164L17.1942 9.23018Z" fill="white"/>
<path d="M28.4039 23.6164C28.3579 24.6062 27.5983 25.8031 26.7236 26.2635L17.8617 30.9821C16.987 31.4425 16.3195 31.0282 16.3655 30.0384L16.5267 26.7699C16.5727 25.7801 17.3323 24.5832 18.207 24.1228L27.0689 19.4041C27.9435 18.9438 28.6111 19.3581 28.565 20.3479L28.4039 23.6164Z" fill="white"/>
<path d="M28.3348 13.6728C28.2888 14.6626 27.5292 15.8365 26.6545 16.2968L6.8131 26.724C5.93842 27.1843 5.24789 26.747 5.29392 25.7572L5.45505 22.4887C5.50108 21.4989 6.26068 20.325 7.13536 19.8646L26.9768 9.43751C27.8515 8.97715 28.542 9.41449 28.496 10.4043L28.3348 13.6728Z" fill="#FCC937"/>
</svg>
