<svg width="104" height="22" viewBox="0 0 104 22" fill="none" xmlns="http://www.w3.org/2000/svg">
<path d="M43.1894 4.37499V17.5H40.8823V7.20051H40.8515L36.7295 17.5H35.1914L30.977 7.20051H30.9463V17.5H28.8238V4.37499H32.146L35.9604 14.0972H36.0219L40.0517 4.37499H43.1894ZM45.0967 5.37759C45.0967 5.01301 45.2197 4.70919 45.4966 4.46613C45.7734 4.22308 46.081 4.10155 46.4502 4.10155C46.8501 4.10155 47.1885 4.22308 47.4346 4.46613C47.6806 4.70919 47.8345 5.01301 47.8345 5.37759C47.8345 5.74218 47.7114 6.046 47.4346 6.28905C47.1577 6.53211 46.8501 6.65363 46.4502 6.65363C46.0503 6.65363 45.7427 6.53211 45.4966 6.28905C45.2505 6.01561 45.0967 5.71179 45.0967 5.37759ZM47.5884 8.08159V17.5H45.3428V8.08159H47.5884ZM54.3867 15.8897C54.7251 15.8897 55.0942 15.829 55.4941 15.6467C55.894 15.4948 56.2632 15.2821 56.6015 15.0391V17.105C56.2324 17.3177 55.8325 17.4696 55.3711 17.5607C54.9097 17.6519 54.4175 17.7126 53.8638 17.7126C52.4487 17.7126 51.3105 17.2873 50.4492 16.4062C49.5571 15.5252 49.1264 14.401 49.1264 13.0642C49.1264 11.5451 49.5879 10.2995 50.48 9.32725C51.3721 8.35502 52.6333 7.86891 54.2944 7.86891C54.7251 7.86891 55.1557 7.92968 55.5556 8.02082C55.9863 8.11197 56.3247 8.26388 56.5708 8.38541V10.5121C56.2324 10.2691 55.8633 10.0564 55.5249 9.93489C55.1557 9.81336 54.7866 9.72221 54.4175 9.72221C53.5254 9.72221 52.8179 9.99562 52.2641 10.5729C51.7104 11.1501 51.4643 11.9097 51.4643 12.8819C51.4643 13.8238 51.7412 14.5833 52.2641 15.0998C52.7871 15.6163 53.4946 15.8897 54.3867 15.8897ZM62.9692 7.92968C63.1538 7.92968 63.3076 7.92968 63.4614 7.96006C63.6152 7.99044 63.7383 8.02082 63.8306 8.0512V10.2995C63.7075 10.2083 63.5537 10.1171 63.3076 10.0564C63.0615 9.99562 62.8154 9.93489 62.477 9.93489C61.9233 9.93489 61.4619 10.1779 61.0928 10.6337C60.7236 11.0894 60.5083 11.7882 60.5083 12.7604V17.5H58.2627V8.08159H60.5083V9.5703H60.5391C60.7544 9.05381 61.062 8.65884 61.4619 8.35502C61.8926 8.08159 62.3848 7.92968 62.9692 7.92968ZM63.9536 12.9427C63.9536 11.3932 64.415 10.1476 65.2764 9.2361C66.1684 8.32464 67.3989 7.86891 68.9678 7.86891C70.4443 7.86891 71.6133 8.29426 72.4438 9.17534C73.2744 10.0564 73.7051 11.2413 73.7051 12.73C73.7051 14.2491 73.2436 15.4644 72.3823 16.3759C71.4902 17.2873 70.2905 17.743 68.7524 17.743C67.2759 17.743 66.1069 17.3177 65.2456 16.467C64.3843 15.5859 63.9536 14.401 63.9536 12.9427ZM66.2915 12.8515C66.2915 13.8237 66.5068 14.5833 66.9682 15.0998C67.4297 15.6163 68.0757 15.8897 68.9062 15.8897C69.706 15.8897 70.352 15.6467 70.7827 15.0998C71.2134 14.5833 71.4287 13.8237 71.4287 12.7908C71.4287 11.7882 71.2134 11.0286 70.7827 10.4818C70.352 9.96527 69.706 9.69183 68.937 9.69183C68.1064 9.69183 67.4912 9.96524 67.0298 10.5121C66.5068 11.0894 66.2915 11.8489 66.2915 12.8515ZM77.0581 10.5729C77.0581 10.8767 77.1504 11.1501 77.3657 11.3324C77.581 11.5147 78.0117 11.7274 78.7192 12.0009C79.6113 12.3654 80.2573 12.7604 80.5957 13.1858C80.9648 13.6415 81.1494 14.158 81.1494 14.796C81.1494 15.6771 80.811 16.3759 80.1035 16.9227C79.4268 17.4696 78.4731 17.7126 77.3042 17.7126C76.9043 17.7126 76.4736 17.6519 75.9814 17.5607C75.4893 17.4696 75.0893 17.348 74.751 17.1961V15.0087C75.1509 15.2821 75.6123 15.5251 76.0737 15.677C76.5351 15.829 76.9658 15.9201 77.3657 15.9201C77.8579 15.9201 78.2578 15.8594 78.4731 15.7075C78.7192 15.5555 78.8423 15.3429 78.8423 15.0087C78.8423 14.7049 78.7192 14.4618 78.4731 14.2187C78.227 14.006 77.7349 13.763 77.0581 13.4896C76.2275 13.1554 75.6431 12.7604 75.3047 12.335C74.9663 11.9097 74.7817 11.3628 74.7817 10.6944C74.7817 9.84374 75.1201 9.14492 75.7969 8.59805C76.4736 8.05117 77.3657 7.77777 78.4424 7.77777C78.7808 7.77777 79.1499 7.80815 79.5498 7.89929C79.9497 7.99044 80.3188 8.08159 80.5957 8.17273V10.3299C80.2881 10.1476 79.9497 9.96524 79.5498 9.81333C79.1499 9.66142 78.75 9.60068 78.3809 9.60068C77.9502 9.60068 77.6118 9.69183 77.3965 9.84374C77.1811 10.0564 77.0581 10.2691 77.0581 10.5729ZM82.103 12.9427C82.103 11.3932 82.5644 10.1476 83.4258 9.2361C84.3179 8.32464 85.5483 7.86891 87.1172 7.86891C88.5938 7.86891 89.7627 8.29426 90.5933 9.17534C91.4238 10.0564 91.8545 11.2413 91.8545 12.73C91.8545 14.2491 91.3931 15.4644 90.5317 16.3759C89.6396 17.2873 88.4399 17.743 86.9018 17.743C85.4253 17.743 84.2563 17.3177 83.395 16.467C82.5644 15.5859 82.103 14.401 82.103 12.9427ZM84.4409 12.8515C84.4409 13.8237 84.6562 14.5833 85.1177 15.0998C85.5791 15.6163 86.2251 15.8897 87.0557 15.8897C87.8555 15.8897 88.5015 15.6467 88.9321 15.0998C89.3628 14.5833 89.5781 13.8237 89.5781 12.7908C89.5781 11.7882 89.3628 11.0286 88.9321 10.4818C88.5015 9.96527 87.8555 9.69183 87.0864 9.69183C86.2559 9.69183 85.6406 9.96524 85.1792 10.5121C84.687 11.0894 84.4409 11.8489 84.4409 12.8515ZM99.3296 9.90447H95.9766V17.5H93.7002V9.90447H92.1006V8.08159H93.7002V6.77516C93.7002 5.80294 94.0386 4.98263 94.6846 4.34461C95.3306 3.70659 96.1611 3.40277 97.1763 3.40277C97.4531 3.40277 97.6992 3.43315 97.9145 3.43315C98.1299 3.43315 98.3145 3.49391 98.4683 3.55468V5.46874C98.4067 5.43836 98.2529 5.37759 98.0684 5.31683C97.8838 5.25607 97.6685 5.22568 97.4224 5.22568C96.9609 5.22568 96.5918 5.37759 96.3457 5.65103C96.0996 5.92447 95.9766 6.3802 95.9766 6.92707V8.0512H99.3296V5.92447L101.575 5.25607V8.0512H103.852V9.87412H101.575V14.2795C101.575 14.8568 101.698 15.2517 101.883 15.4948C102.098 15.7378 102.437 15.8594 102.898 15.8594C103.021 15.8594 103.175 15.829 103.359 15.7682C103.544 15.7075 103.698 15.6467 103.821 15.5555V17.3785C103.667 17.4696 103.452 17.5304 103.113 17.5911C102.775 17.6519 102.467 17.6823 102.129 17.6823C101.175 17.6823 100.468 17.4392 100.006 16.9531C99.5449 16.467 99.2988 15.7075 99.2988 14.7049L99.3296 9.90447Z" fill="white"/>
<path d="M10.5205 0H0V10.3906H10.5205V0Z" fill="white"/>
<path d="M22.1484 0H11.6278V10.3906H22.1484V0Z" fill="white"/>
<path d="M10.5205 11.4844H0V21.875H10.5205V11.4844Z" fill="white"/>
<path d="M22.1484 11.4844H11.6278V21.875H22.1484V11.4844Z" fill="white"/>
</svg>
