<svg width="29" height="29" viewBox="0 0 29 29" fill="none" xmlns="http://www.w3.org/2000/svg">
<path d="M26.875 0H1.875C1.37772 0 0.900805 0.197544 0.549175 0.549175C0.197544 0.900805 0 1.37772 0 1.875V26.875C0 27.3723 0.197544 27.8492 0.549175 28.2008C0.900805 28.5525 1.37772 28.75 1.875 28.75H26.875C27.3723 28.75 27.8492 28.5525 28.2008 28.2008C28.5525 27.8492 28.75 27.3723 28.75 26.875V1.875C28.75 1.37772 28.5525 0.900805 28.2008 0.549175C27.8492 0.197544 27.3723 0 26.875 0ZM8.125 18.75C8.49584 18.75 8.85835 18.86 9.16669 19.066C9.47504 19.272 9.71536 19.5649 9.85727 19.9075C9.99919 20.2501 10.0363 20.6271 9.96397 20.9908C9.89163 21.3545 9.71305 21.6886 9.45083 21.9508C9.1886 22.213 8.85451 22.3916 8.4908 22.464C8.12708 22.5363 7.75008 22.4992 7.40747 22.3573C7.06486 22.2154 6.77202 21.975 6.56599 21.6667C6.35997 21.3584 6.25 20.9958 6.25 20.625C6.25 20.1277 6.44754 19.6508 6.79917 19.2992C7.15081 18.9475 7.62772 18.75 8.125 18.75ZM1.25 26.875V1.875C1.25 1.70924 1.31585 1.55027 1.43306 1.43306C1.55027 1.31585 1.70924 1.25 1.875 1.25H7.5V17.5625C6.74122 17.7174 6.06699 18.1485 5.608 18.7722C5.14902 19.396 4.93799 20.168 5.01583 20.9385C5.09366 21.709 5.45482 22.4231 6.02928 22.9425C6.60374 23.4618 7.35058 23.7494 8.125 23.7494C8.89942 23.7494 9.64626 23.4618 10.2207 22.9425C10.7952 22.4231 11.1563 21.709 11.2342 20.9385C11.312 20.168 11.101 19.396 10.642 18.7722C10.183 18.1485 9.50878 17.7174 8.75 17.5625V10.8844L17.5 19.6344V27.5H1.875C1.70924 27.5 1.55027 27.4342 1.43306 27.3169C1.31585 27.1997 1.25 27.0408 1.25 26.875ZM27.5 26.875C27.5 27.0408 27.4342 27.1997 27.3169 27.3169C27.1997 27.4342 27.0408 27.5 26.875 27.5H18.75V19.375C18.7501 19.2929 18.734 19.2116 18.7026 19.1357C18.6712 19.0598 18.6252 18.9909 18.5672 18.9328L8.75 9.11562V1.25H15V5.625C14.9999 5.7071 15.016 5.78841 15.0474 5.86428C15.0788 5.94015 15.1248 6.0091 15.1828 6.06719L18.0203 8.90625C17.5937 9.5524 17.4221 10.3339 17.5389 11.0994C17.6556 11.8648 18.0524 12.5597 18.6523 13.0492C19.2522 13.5388 20.0124 13.7882 20.7857 13.7492C21.5591 13.7101 22.2903 13.3854 22.8378 12.8378C23.3854 12.2903 23.7101 11.5591 23.7492 10.7857C23.7882 10.0124 23.5388 9.25217 23.0492 8.65229C22.5597 8.0524 21.8648 7.65563 21.0994 7.53887C20.3339 7.42211 19.5524 7.59367 18.9062 8.02031L16.25 5.36406V1.25H26.875C27.0408 1.25 27.1997 1.31585 27.3169 1.43306C27.4342 1.55027 27.5 1.70924 27.5 1.875V26.875ZM20.625 8.75C20.9958 8.75 21.3584 8.85997 21.6667 9.06599C21.975 9.27202 22.2154 9.56486 22.3573 9.90747C22.4992 10.2501 22.5363 10.6271 22.464 10.9908C22.3916 11.3545 22.213 11.6886 21.9508 11.9508C21.6886 12.213 21.3545 12.3916 20.9908 12.464C20.6271 12.5363 20.2501 12.4992 19.9075 12.3573C19.5649 12.2154 19.272 11.975 19.066 11.6667C18.86 11.3584 18.75 10.9958 18.75 10.625C18.75 10.1277 18.9475 9.65081 19.2992 9.29917C19.6508 8.94754 20.1277 8.75 20.625 8.75Z" fill="white"/>
</svg>
