<svg width="35" height="31" viewBox="0 0 35 31" fill="none" xmlns="http://www.w3.org/2000/svg">
<path d="M33.9187 25.4823L20.2531 1.75265C19.9392 1.21897 19.4914 0.776528 18.954 0.469119C18.4165 0.16171 17.8081 0 17.189 0C16.5699 0 15.9615 0.16171 15.4241 0.469119C14.8866 0.776528 14.4388 1.21897 14.1249 1.75265L0.45932 25.4823C0.158519 25.9973 0 26.5829 0 27.1792C0 27.7756 0.158519 28.3612 0.45932 28.8761C0.768995 29.4135 1.21622 29.8588 1.75501 30.1661C2.29381 30.4734 2.90472 30.6316 3.52494 30.6245H30.8531C31.4728 30.631 32.083 30.4725 32.6212 30.1653C33.1594 29.858 33.6062 29.4131 33.9156 28.8761C34.2168 28.3615 34.3759 27.776 34.3765 27.1796C34.377 26.5833 34.219 25.9975 33.9187 25.4823ZM32.2921 27.937C32.1461 28.1881 31.9358 28.3958 31.6829 28.5386C31.4299 28.6814 31.1435 28.7542 30.8531 28.7495H3.52494C3.23452 28.7542 2.94809 28.6814 2.69515 28.5386C2.44222 28.3958 2.23191 28.1881 2.08588 27.937C1.94929 27.7073 1.87719 27.4449 1.87719 27.1777C1.87719 26.9104 1.94929 26.648 2.08588 26.4183L15.7499 2.68859C15.8993 2.44044 16.1103 2.23514 16.3625 2.09261C16.6146 1.95009 16.8994 1.87519 17.189 1.87519C17.4787 1.87519 17.7634 1.95009 18.0155 2.09261C18.2677 2.23514 18.4787 2.44044 18.6281 2.68859L32.2937 26.4183C32.4301 26.6482 32.5019 26.9106 32.5016 27.1779C32.5013 27.4452 32.429 27.7074 32.2921 27.937ZM16.2515 18.437V12.187C16.2515 11.9384 16.3503 11.6999 16.5261 11.5241C16.7019 11.3483 16.9404 11.2495 17.189 11.2495C17.4376 11.2495 17.6761 11.3483 17.8519 11.5241C18.0277 11.6999 18.1265 11.9384 18.1265 12.187V18.437C18.1265 18.6857 18.0277 18.9241 17.8519 19.0999C17.6761 19.2758 17.4376 19.3745 17.189 19.3745C16.9404 19.3745 16.7019 19.2758 16.5261 19.0999C16.3503 18.9241 16.2515 18.6857 16.2515 18.437ZM18.7515 24.062C18.7515 24.3711 18.6599 24.6732 18.4882 24.9301C18.3165 25.1871 18.0725 25.3873 17.787 25.5056C17.5014 25.6239 17.1873 25.6548 16.8842 25.5945C16.5811 25.5342 16.3027 25.3854 16.0842 25.1669C15.8656 24.9484 15.7168 24.67 15.6565 24.3669C15.5962 24.0638 15.6272 23.7496 15.7454 23.4641C15.8637 23.1786 16.064 22.9345 16.3209 22.7629C16.5779 22.5912 16.88 22.4995 17.189 22.4995C17.6034 22.4995 18.0008 22.6641 18.2939 22.9572C18.5869 23.2502 18.7515 23.6476 18.7515 24.062Z" fill="white"/>
</svg>
