<svg width="35" height="35" viewBox="0 0 35 35" fill="none" xmlns="http://www.w3.org/2000/svg">
<path d="M20.9375 12.5H13.4375C13.1889 12.5 12.9504 12.5988 12.7746 12.7746C12.5988 12.9504 12.5 13.1889 12.5 13.4375V20.9375C12.5 21.1861 12.5988 21.4246 12.7746 21.6004C12.9504 21.7762 13.1889 21.875 13.4375 21.875H20.9375C21.1861 21.875 21.4246 21.7762 21.6004 21.6004C21.7762 21.4246 21.875 21.1861 21.875 20.9375V13.4375C21.875 13.1889 21.7762 12.9504 21.6004 12.7746C21.4246 12.5988 21.1861 12.5 20.9375 12.5ZM20 20H14.375V14.375H20V20ZM33.4375 20H30.625V14.375H33.4375C33.6861 14.375 33.9246 14.2762 34.1004 14.1004C34.2762 13.9246 34.375 13.6861 34.375 13.4375C34.375 13.1889 34.2762 12.9504 34.1004 12.7746C33.9246 12.5988 33.6861 12.5 33.4375 12.5H30.625V5.9375C30.625 5.35734 30.3945 4.80094 29.9843 4.3907C29.5741 3.98047 29.0177 3.75 28.4375 3.75H21.875V0.9375C21.875 0.68886 21.7762 0.450403 21.6004 0.274587C21.4246 0.0987719 21.1861 0 20.9375 0C20.6889 0 20.4504 0.0987719 20.2746 0.274587C20.0988 0.450403 20 0.68886 20 0.9375V3.75H14.375V0.9375C14.375 0.68886 14.2762 0.450403 14.1004 0.274587C13.9246 0.0987719 13.6861 0 13.4375 0C13.1889 0 12.9504 0.0987719 12.7746 0.274587C12.5988 0.450403 12.5 0.68886 12.5 0.9375V3.75H5.9375C5.35734 3.75 4.80094 3.98047 4.3907 4.3907C3.98047 4.80094 3.75 5.35734 3.75 5.9375V12.5H0.9375C0.68886 12.5 0.450403 12.5988 0.274587 12.7746C0.0987719 12.9504 0 13.1889 0 13.4375C0 13.6861 0.0987719 13.9246 0.274587 14.1004C0.450403 14.2762 0.68886 14.375 0.9375 14.375H3.75V20H0.9375C0.68886 20 0.450403 20.0988 0.274587 20.2746C0.0987719 20.4504 0 20.6889 0 20.9375C0 21.1861 0.0987719 21.4246 0.274587 21.6004C0.450403 21.7762 0.68886 21.875 0.9375 21.875H3.75V28.4375C3.75 29.0177 3.98047 29.5741 4.3907 29.9843C4.80094 30.3945 5.35734 30.625 5.9375 30.625H12.5V33.4375C12.5 33.6861 12.5988 33.9246 12.7746 34.1004C12.9504 34.2762 13.1889 34.375 13.4375 34.375C13.6861 34.375 13.9246 34.2762 14.1004 34.1004C14.2762 33.9246 14.375 33.6861 14.375 33.4375V30.625H20V33.4375C20 33.6861 20.0988 33.9246 20.2746 34.1004C20.4504 34.2762 20.6889 34.375 20.9375 34.375C21.1861 34.375 21.4246 34.2762 21.6004 34.1004C21.7762 33.9246 21.875 33.6861 21.875 33.4375V30.625H28.4375C29.0177 30.625 29.5741 30.3945 29.9843 29.9843C30.3945 29.5741 30.625 29.0177 30.625 28.4375V21.875H33.4375C33.6861 21.875 33.9246 21.7762 34.1004 21.6004C34.2762 21.4246 34.375 21.1861 34.375 20.9375C34.375 20.6889 34.2762 20.4504 34.1004 20.2746C33.9246 20.0988 33.6861 20 33.4375 20ZM28.75 28.4375C28.75 28.5204 28.7171 28.5999 28.6585 28.6585C28.5999 28.7171 28.5204 28.75 28.4375 28.75H5.9375C5.85462 28.75 5.77513 28.7171 5.71653 28.6585C5.65792 28.5999 5.625 28.5204 5.625 28.4375V5.9375C5.625 5.85462 5.65792 5.77513 5.71653 5.71653C5.77513 5.65792 5.85462 5.625 5.9375 5.625H28.4375C28.5204 5.625 28.5999 5.65792 28.6585 5.71653C28.7171 5.77513 28.75 5.85462 28.75 5.9375V28.4375Z" fill="white"/>
</svg>
