<svg width="14" height="12" viewBox="0 0 14 12" fill="none" xmlns="http://www.w3.org/2000/svg">
<path d="M13.7107 3.1844L11.3341 10.954C11.2856 11.1125 11.1761 11.2453 11.0298 11.3231C10.8834 11.4009 10.7121 11.4174 10.5536 11.3689C10.3951 11.3204 10.2623 11.2109 10.1845 11.0646C10.1067 10.9182 10.0903 10.7469 10.1387 10.5884L12.0741 4.26137L0.918835 10.1913C0.772385 10.2691 0.60101 10.2856 0.442411 10.2371C0.283813 10.1886 0.150982 10.0791 0.0731405 9.93261C-0.00470135 9.78616 -0.0211778 9.61478 0.0273357 9.45619C0.0758492 9.29759 0.185379 9.16476 0.331829 9.08691L11.4876 3.15797L5.1606 1.2226C5.00209 1.17412 4.86934 1.06465 4.79154 0.918279C4.71374 0.77191 4.69727 0.600631 4.74576 0.44212C4.79425 0.28361 4.90371 0.150853 5.05008 0.0730545C5.19645 -0.00474414 5.36773 -0.0212116 5.52624 0.0272749L13.2959 2.40392C13.4544 2.4524 13.5871 2.56187 13.6649 2.70824C13.7427 2.85461 13.7592 3.02589 13.7107 3.1844Z" fill="white"/>
</svg>
